<?xml version="1.0" standalone="no"?><!DOCTYPE svg PUBLIC "-//W3C//DTD SVG 1.1//EN" "http://www.w3.org/Graphics/SVG/1.1/DTD/svg11.dtd"><svg t="1667455339496" class="icon" viewBox="0 0 1024 1024" version="1.1" xmlns="http://www.w3.org/2000/svg" p-id="2724" xmlns:xlink="http://www.w3.org/1999/xlink" width="32" height="32"><path d="M512 96c-0.2 0-0.2 0-0.4 0 0 0 0 0-0.2 0-0.2 0-0.4 0-0.4 0C281.6 96.6 96 282.6 96 512c0 229.4 185.6 415.4 415 416 0.2 0 0.4 0 0.4 0 0 0 0.2 0 0.2 0 0.2 0 0.2 0 0.4 0 229.8 0 416-186.2 416-416C928 282.2 741.8 96 512 96zM528.6 345c44.2-1.2 87-7 128.4-17 12.4 49 20.2 105.6 21.4 167.6l-149.8 0L528.6 345zM528.6 311.6 528.6 132c44.8 12.4 90.4 72.2 119.2 164C609.4 305.2 569.6 310.4 528.6 311.6zM495.4 131.6l0 180.2c-41.4-1.2-81.6-6.6-120.2-16C404.4 203.4 450.2 143.2 495.4 131.6zM495.4 345l0 150.4-150.8 0c1.2-62 9-118.6 21.4-167.6C407.6 337.8 451 343.8 495.4 345zM311 495.4 129.8 495.4c3.6-85.6 35.6-164 86.6-226 37 20.4 76.4 37.2 117.6 49.6C320.4 372 312.4 431.8 311 495.4zM311 528.6c1.2 63.4 9.2 123.4 22.8 176.4-41.2 12.6-80.4 29.2-117.6 49.6-51-62-82.8-140.4-86.6-226L311 528.6zM344.6 528.6l150.8 0 0 150.2c-44.4 1.2-87.8 7.2-129.4 17.4C353.6 647.2 345.8 590.6 344.6 528.6zM495.4 712.2l0 180.4c-45.2-11.8-91-71.8-120.2-164.2C413.8 718.8 454 713.4 495.4 712.2zM528.6 892l0-180c41 1.2 80.8 6.6 119.4 15.8C619 819.8 573.6 879.6 528.6 892zM528.6 678.8l0-150.2 149.8 0c-1.2 61.8-9 118.4-21.4 167.4C615.6 686 572.8 680 528.6 678.8zM711.8 528.6l182.4 0c-3.6 85.6-35.6 163.8-86.6 226-37.4-20.6-77-37.4-118.6-50C702.6 651.6 710.6 592 711.8 528.6zM711.8 495.4c-1.2-63.4-9.2-123.2-22.6-176.2 41.6-12.6 81.2-29.4 118.4-49.8 51 62 83 140.4 86.6 226.2L711.8 495.6zM784.8 243.8c-33.2 17.6-68 32.2-104.6 43.2-19.4-62.6-46.8-113.6-79-147.2C672 156.8 735.2 193.6 784.8 243.8zM421.6 140.2c-32.2 33.4-59.4 84.4-78.6 146.6-36.2-11-70.8-25.4-103.6-43C288.4 193.8 351.2 157.2 421.6 140.2zM239.2 780c32.8-17.6 67.6-32 103.6-43 19.4 62.4 46.6 113.2 78.8 146.8C351.2 866.8 288.4 830.2 239.2 780zM601.2 884.2c32.4-33.6 59.6-84.6 79.2-147.4 36.6 11 71.4 25.6 104.6 43.2C735.4 830.4 672 867.2 601.2 884.2z" p-id="2725" fill="#ffffff"></path></svg>